<svg width="300" height="100.00000000000001" xmlns="http://www.w3.org/2000/svg" xml:space="preserve" version="1.1">
 <g>
  <title>Layer 1</title>
  <g id="Layer_1"/>
  <metadata fill="#ffc576" stroke="#ffc576">image/svg+xml</metadata>
  <path fill-opacity="0" id="svg_13" d="m38.86169,26.01386c0,0.23066 -0.26861,0.23066 -0.26861,0.23066l-0.26861,0c-0.26861,0 -0.26861,-0.23066 -0.53723,-0.46132c0,0 -0.26861,-0.23066 -0.26861,-0.46132s0,-0.23066 0.26861,-0.23066l0.53723,0.23066c0.26861,0.23066 0.53723,0.46132 0.53723,0.69199m-4.83505,-2.30663c0,-1.15332 -0.53723,-1.84531 -1.34306,-1.84531c0,0 0,0.23066 -0.26861,0.23066l0,0.46132l0.80584,0c0,0.46132 0.26861,0.69199 0.26861,1.15332l0.53723,0m9.40148,-1.15332c0.53723,0 0.80584,0.46132 1.07446,1.15332l0.53723,0c-0.26861,-0.23066 -0.26861,-0.46132 -0.26861,-0.69199s0,-0.46132 -0.26861,-0.69199s-0.53723,-0.46132 -0.80584,-0.46132c0,0 -0.26861,0.23066 -0.53723,0.23066c0,0.23066 0.26861,0.23066 0.26861,0.46132m-8.05842,3.69062c-0.26861,0 -0.26861,0 -0.26861,-0.23066s0,-0.46132 0.26861,-0.69199c0.53723,0 0.80584,-0.23066 0.80584,-0.23066c0.26861,0 0.26861,0.23066 0.26861,0.23066c0,0.23066 -0.26861,0.46132 -0.80584,0.92266l-0.26861,0m-2.95475,-0.23066c-1.07446,-0.46132 -1.34306,-1.15332 -1.34306,-2.30663c0,-0.69199 0,-1.15332 0.53723,-1.61465c0.26861,-0.46132 0.80584,-0.69199 1.34306,-0.69199s0.80584,0.23066 1.34306,0.69199c0.26861,0.69199 0.53723,1.38398 0.53723,2.07597l0,0.23066l0,0.23066l0.26861,0l0,-0.23066c0.26861,0 0.26861,-0.46132 0.26861,-1.38398c0,-0.69199 0,-1.38398 -0.53723,-2.07597s-1.07446,-1.15332 -2.14891,-1.15332c-0.80584,0 -1.61168,0.46132 -1.88029,1.15332c-0.53723,0.92266 -0.64467,1.61465 -0.64467,2.76797c0,0.92266 0.37606,1.84531 1.45052,2.76797c0.26861,-0.23066 0.53723,-0.23066 0.80584,-0.46132m33.57672,32.52358c0.26861,0 0.26861,-0.09227 0.26861,-0.29986c0,-0.50746 -0.26861,-1.10719 -1.07446,-1.77611c-0.80584,-0.69199 -2.14891,-1.13025 -3.76059,-1.31478c-0.26861,-0.02307 -0.53723,-0.02307 -0.53723,-0.02307c-0.26861,-0.04613 -0.26861,-0.04613 -0.53723,-0.04613c-0.26861,-0.02307 -0.80584,-0.0692 -1.07446,-0.11534c0.80584,-2.14517 1.07446,-4.03662 1.07446,-5.6974c0,-2.30663 -0.53723,-3.92128 -1.61168,-5.30526s-2.14891,-2.07597 -3.49198,-2.30663c-0.26861,0.23066 -0.26861,0.23066 -0.26861,0.46132c1.34306,0.46132 2.68614,1.38398 3.49198,2.76797c0.80584,1.61465 1.07446,2.99863 1.07446,4.61328c0,1.29172 -0.26861,3.20623 -1.34306,5.65126c-1.07446,0.36907 -2.14891,1.22251 -2.95475,2.56036c0,0.2076 0,0.32293 0.26861,0.32293c0,0 0.26861,-0.2076 0.53723,-0.59973c0.53723,-0.39213 0.80584,-0.78426 1.34306,-1.17639c0.80584,-0.39213 1.34306,-0.59973 2.14891,-0.59973c1.34306,0 2.68614,0.16146 3.49198,0.48439c1.07446,0.29986 1.61168,0.6228 1.88029,0.99185c0.26861,0.346 0.53723,0.66892 0.80584,0.96878c0,0.29986 0.26861,0.43826 0.26861,0.43826m-24.71247,-33.44623c-0.26861,-0.23066 -0.26861,-0.69199 -0.26861,-1.15332c0,-0.92266 0,-1.38398 0.53723,-2.07597c0.53723,-0.46132 1.07446,-0.69199 1.61168,-0.69199c0.80584,0 1.34306,0.46132 1.88029,0.92266c0.26861,0.69199 0.53723,1.15332 0.53723,1.84531c0,1.15332 -0.53723,1.84531 -1.61168,2.07597c0,0 0.26861,0.23066 0.53723,0.23066c0.53723,0 0.80584,0.23066 1.34306,0.46132c0.26861,-1.38398 0.53723,-2.30663 0.53723,-3.45996c0,-1.38398 -0.26861,-2.30663 -0.80584,-2.99863c-0.80584,-0.69199 -1.61168,-0.92266 -2.68614,-0.92266c-0.80584,0 -1.61168,0.23066 -2.41752,0.69199c-0.53723,0.69199 -0.80584,1.15332 -0.80584,1.84531c0,1.15332 0.26861,2.07597 0.80584,2.99863c0.26861,0 0.53723,0.23066 0.80584,0.23066m3.22337,3.69062c-3.49198,2.07597 -6.17811,2.99863 -8.32703,2.99863c-1.88029,0 -3.76059,-0.69199 -5.37228,-1.84531c0.26861,0.46132 0.53723,0.92266 0.80584,1.15332l1.61168,1.38398c1.07446,0.92266 2.41752,1.38398 3.76059,1.38398c1.88029,0 4.0292,-0.92266 6.71534,-2.5373l2.41752,-1.38398c0.53723,-0.46132 1.07446,-0.92266 1.07446,-1.61465c0,-0.23066 0,-0.46132 -0.26861,-0.46132c-0.26861,-0.46132 -1.61168,-1.15332 -4.29782,-1.84531c-2.41752,-0.92266 -4.29782,-1.38398 -5.37228,-1.38398c-0.80584,0 -2.14891,0.46132 -4.0292,1.38398c-1.61168,0.92266 -2.68614,1.84531 -2.68614,2.76797c0,0 0.26861,0.23066 0.53723,0.69199c1.61168,1.15332 3.22337,1.84531 4.83505,1.84531c2.14891,0 4.83505,-0.92266 8.32703,-3.22929l0,0.46132c0.26861,0 0.26861,0.23066 0.26861,0.23066m6.17811,46.59407c1.07446,1.73459 2.95475,2.6065 5.10366,2.6065c0.53723,0 1.07446,-0.0692 1.61168,-0.2076c0.53723,-0.09227 1.07446,-0.25373 1.34306,-0.43826c0.26861,-0.16146 0.53723,-0.32293 0.80584,-0.50746c0.53723,-0.16146 0.53723,-0.2768 0.80584,-0.39213l4.56643,-3.39075c1.07446,-0.73582 2.14891,-1.37937 3.49198,-1.93758c1.07446,-0.55359 2.14891,-0.92266 2.68614,-1.13025c0.80584,-0.18453 1.34306,-0.46132 1.88029,-0.83039c0.26861,-0.346 0.53723,-0.78426 0.53723,-1.33785c0,-0.66892 -0.53723,-1.17639 -1.07446,-1.54544s-1.07446,-0.6228 -1.61168,-0.78426s-1.07446,-0.53053 -1.88029,-1.15332c-0.53723,-0.59973 -1.07446,-1.43012 -1.34306,-2.51424l-0.26861,-1.33785c-0.26861,-0.6228 -0.26861,-1.08412 -0.53723,-1.33785c0,-0.0692 0,-0.09227 -0.26861,-0.09227s-0.80584,0.2076 -1.07446,0.59973c-0.53723,0.39213 -1.07446,0.83039 -1.61168,1.29172c-0.26861,0.46132 -1.07446,0.87653 -1.61168,1.26865c-0.80584,0.39213 -1.61168,0.59973 -2.14891,0.59973c-2.14891,0 -3.22337,-0.50746 -4.0292,-1.49931c-0.53723,-0.73812 -0.80584,-1.59158 -1.07446,-2.56036c-0.53723,-0.39213 -0.80584,-0.59973 -1.34306,-0.59973c-1.34306,0 -1.88029,1.19945 -1.88029,3.62142l0,0.76119l0,2.6757l0,2.0529l0,0.99185l0,0.69199c0,0.2076 -0.26861,0.66892 -0.26861,1.38398c-0.26861,0.71505 -0.26861,1.52699 -0.26861,2.44504l-0.53723,2.56036l0,0.03921m-38.949,-1.22021c2.49811,0.3137 5.37228,0.98493 8.6225,2.00908c3.25023,1.01492 5.23797,1.54544 5.96323,1.54544c1.88029,0 3.43825,-0.71505 4.72761,-2.09674c0.26861,-0.44749 0.26861,-0.97341 0.26861,-1.57774c0,-2.17977 -1.5311,-4.9362 -4.59329,-8.28083l-1.82657,-2.09904c-0.37606,-0.43826 -0.83271,-1.10719 -1.42366,-2.00677c-0.56409,-0.89959 -1.07446,-1.59158 -1.47738,-2.07597c-0.3492,-0.53053 -0.91329,-1.06105 -1.63854,-1.59158c-0.69839,-0.53053 -1.50424,-0.87653 -2.39066,-1.06105c-1.12818,0.18453 -1.90716,0.50746 -2.28322,0.94572s-0.59095,0.92266 -0.64467,1.43012c-0.08058,0.48439 -0.24175,0.80732 -0.51037,0.96878c-0.26861,0.13839 -0.72525,0.25373 -1.34306,0.36907c-0.1343,0 -0.37606,0 -0.72525,0.02307l-0.72525,0c-1.42366,0 -2.39066,0.13839 -2.90103,0.36907c-0.67153,0.66892 -1.02073,1.43012 -1.02073,2.23744c0,0.36907 0.10744,0.99185 0.32234,1.86838c0.21489,0.85346 0.32234,1.54544 0.32234,2.02984c0,0.94572 -0.32234,1.89144 -0.99387,2.83716c-0.67153,0.99185 -1.02073,1.72998 -1.02073,2.25589c0.26861,0.89497 2.04147,1.52469 5.29169,1.89375m8.94484,-20.96733c0,-1.59158 0.48351,-3.34462 1.47738,-5.4206c0.96701,-2.07597 1.93402,-3.45996 2.87416,-4.38262c-0.05372,-0.23066 -0.18803,-0.23066 -0.40292,-0.23066l-0.26861,-0.23066c-0.77898,0.69199 -1.71913,2.30663 -2.8473,4.61328c-1.12818,2.07597 -1.71913,3.99048 -1.71913,5.39753c0,1.03799 0.29548,1.93758 0.83271,2.72183c0.59095,0.76119 2.01461,1.86838 4.27096,3.27543l2.8473,1.59158c3.03534,2.26051 4.64702,3.82902 4.64702,4.75167c0,0.48439 -0.26861,0.96878 -1.07446,1.49931c-0.53723,0.55359 -1.26248,0.83039 -1.88029,0.83039c-0.05372,0 -0.08058,0.04613 -0.08058,0.16146c0,0.02307 0.26861,0.48439 0.83271,1.38398c1.12818,1.31478 3.5457,1.96065 6.76906,1.96065c5.90951,0 10.47594,-2.07597 13.96792,-6.22792c0,-1.15332 0,-1.86838 -0.26861,-2.16824l0,-0.85346c0,-1.49931 0.26861,-2.62957 0.80584,-3.36769s1.07446,-1.08412 1.88029,-1.08412c0.53723,0 1.07446,0.16146 1.61168,0.50746c0.26861,-1.77611 0.26861,-3.32156 0.26861,-4.70554c0,-2.09904 0,-3.82902 -0.53723,-5.44367c-0.26861,-1.38398 -0.80584,-2.5373 -1.34306,-3.45996c-0.53723,-0.69199 -1.07446,-1.38398 -1.61168,-2.07597s-0.80584,-1.38398 -1.34306,-2.07597c-0.26861,-0.92266 -0.53723,-1.61465 -0.53723,-2.76797c-0.80584,-1.15332 -1.34306,-2.30663 -2.14891,-3.45996c-0.53723,-1.15332 -1.07446,-2.30663 -1.61168,-3.22929l-2.41752,1.61465c-2.68614,1.61465 -4.83505,2.30663 -6.71534,2.30663c-1.61168,0 -2.95475,-0.23066 -3.76059,-1.15332l-1.61168,-1.15332c0,0.69199 -0.26861,1.61465 -0.80584,2.5373l-1.69227,2.76797c-0.75211,1.61465 -1.15504,2.5373 -1.23562,3.22929c-0.10744,0.46132 -0.18803,0.92266 -0.24175,0.92266l-2.01461,3.45996c-2.17577,3.45996 -3.27709,6.66618 -3.27709,9.31881c0,0.53053 0.05372,1.08412 0.16117,1.63771c-1.20876,-0.71505 -1.79971,-1.70692 -1.79971,-2.99863m19.23275,21.82079c-3.49198,0 -6.17811,0.40597 -8.05842,1.21098l0,-0.0692c-1.34306,1.38398 -2.8473,2.09904 -4.94249,2.09904c-1.3162,0 -3.38453,-0.43826 -6.17811,-1.31478c-2.82044,-0.83039 -5.31856,-1.46702 -7.49433,-1.88683c-0.21489,-0.05306 -0.69839,-0.13148 -1.47738,-0.23758c-0.75211,-0.1038 -1.45052,-0.20991 -2.06833,-0.31601c-0.56409,-0.1038 -1.20876,-0.26065 -1.90716,-0.47286c-0.67153,-0.18223 -1.20876,-0.41981 -1.61168,-0.70814c-0.37068,-0.29064 -0.55335,-0.61817 -0.55335,-0.98493c0,-0.36907 0.09133,-0.7635 0.27399,-1.1833c0.17192,-0.25373 0.35994,-0.50746 0.54797,-0.73812c0.18803,-0.25373 0.3492,-0.48439 0.45665,-0.71505c0.16117,-0.2076 0.26861,-0.41519 0.37606,-0.64586c0.10744,-0.2076 0.21489,-0.41519 0.26861,-0.66892c0.05372,-0.23066 0.10744,-0.46132 0.10744,-0.69199s-0.10744,-0.92266 -0.32234,-2.14517c-0.21489,-1.19945 -0.32234,-1.96065 -0.32234,-2.28357c0,-1.01492 0.26861,-1.82224 0.85957,-2.3989s1.15504,-0.87653 1.74599,-0.87653l3.08906,0c0.24175,0 0.61781,-0.11534 1.1819,-0.39213c0.18803,-0.36907 0.3492,-0.66892 0.45665,-0.94572c0.1343,-0.2768 0.18803,-0.48439 0.24175,-0.57666c0.05372,-0.13839 0.10744,-0.2768 0.16117,-0.39213c0.10744,-0.16146 0.24175,-0.346 0.42978,-0.53053c-0.21489,-0.23066 -0.32234,-0.53053 -0.32234,-0.89959c0,-0.25373 0,-0.48439 0.05372,-0.6228c0,-0.83039 0.45665,-2.00677 1.42366,-3.55222l0.94015,-1.45319c0.77898,-1.24558 1.36993,-2.16824 1.79971,-3.09089c0.45665,-0.92266 0.94015,-2.30663 1.47738,-4.15194c0.42978,-1.61465 1.45052,-3.22929 3.0622,-4.84394l2.01461,-2.07597c1.3968,-1.38398 2.31008,-2.5373 2.82044,-3.45996s0.77898,-2.07597 0.77898,-2.99863c0,-0.46132 -0.1343,-1.84531 -0.42978,-4.15194c-0.26861,-2.30663 -0.40292,-4.61328 -0.40292,-6.68925c0,-1.61465 0.16117,-2.76797 0.51037,-3.92128s0.96701,-2.30663 1.88029,-3.22929c0.80584,-0.92266 1.88029,-1.84531 3.49198,-2.30663s3.49198,-0.69199 5.64089,-0.69199c0.80584,0 1.61168,0 2.41752,0.23066c0.80584,0 1.88029,0.23066 3.22337,0.69199c1.07446,0.46132 2.14891,0.92266 2.95475,1.61465c1.07446,0.69199 1.88029,1.84531 2.68614,2.99863c0.53723,1.38398 1.07446,2.76797 1.34306,4.61328c0.26861,1.15332 0.26861,2.30663 0.53723,3.92128c0,1.38398 0.26861,2.30663 0.26861,2.99863c0.26861,0.69199 0.26861,1.61465 0.53723,2.76797c0.26861,0.92266 0.53723,1.84531 1.07446,2.5373c0.53723,0.92266 1.07446,1.84531 1.88029,2.76797c0.80584,1.15332 1.88029,2.30663 2.95475,3.69062c2.41752,2.30663 4.29782,4.84394 5.37228,7.38124c1.34306,2.30663 2.14891,5.30526 2.14891,8.51149c0,1.59158 -0.26861,3.13702 -0.80584,4.63634c0.53723,0 0.80584,0.18453 1.07446,0.50746s0.53723,1.01492 0.80584,2.09904l0.26861,1.70692c0.26861,0.50746 0.53723,0.99185 1.34306,1.40705c0.53723,0.41519 1.07446,0.76119 1.88029,1.03799c0.53723,0.23066 1.34306,0.55359 1.88029,0.96878c0.53723,0.46132 0.80584,0.94572 0.80584,1.45319c0,0.78426 -0.26861,1.36092 -0.80584,1.77611c-0.53723,0.46132 -1.07446,0.78426 -1.88029,0.99185c-0.53723,0.23066 -1.61168,0.69199 -3.22337,1.34246c-1.34306,0.68276 -2.68614,1.51084 -4.0292,2.49117l-2.68614,1.96295c-1.07446,0.89959 -2.14891,1.54544 -2.95475,1.93758c-0.80584,0.41519 -1.88029,0.6228 -2.95475,0.6228l-1.88029,-0.18453c-2.14891,-0.48439 -3.49198,-1.40705 -4.29782,-2.81409c-4.29782,-0.44749 -7.7898,-0.66892 -9.93871,-0.66892" fill="#ffffff" stroke="#ffc576"/>
  <mask id="svg_23" mask-type="alpha" maskUnits="userSpaceOnUse" x="0" y="0" width="256" height="256" stroke="null">
   <path id="svg_14" fill-rule="evenodd" clip-rule="evenodd" d="m181.534,254.252c4.032,1.571 8.63,1.47 12.7,-0.488l52.706,-25.361c5.538,-2.665 9.06,-8.271 9.06,-14.42l0,-171.9649c0,-6.1492 -3.522,-11.7543 -9.06,-14.4193l-52.706,-25.36199c-5.341,-2.56994 -11.592,-1.94047 -16.279,1.46737c-0.67,0.48682 -1.308,1.03036 -1.906,1.62936l-100.9,92.05266l-43.9498,-33.3615c-4.0913,-3.1056 -9.8139,-2.8512 -13.6137,0.6053l-14.09614,12.8225c-4.64789,4.228 -4.65322,11.5401 -0.01151,15.7749l38.11475,34.7726l-38.11475,34.773c-4.64171,4.235 -4.63638,11.547 0.01151,15.775l14.09614,12.822c3.7998,3.457 9.5224,3.711 13.6137,0.606l43.9498,-33.362l100.9,92.053c1.596,1.597 3.47,2.8 5.485,3.585zm10.505,-184.3667l-76.56,58.1147l76.56,58.115l0,-116.2297z" fill="white" stroke="null"/>
  </mask>
  <g id="svg_16" fill-opacity="0" stroke="null" stroke-width="2">
   <title fill="#ffc576" stroke="#ffc576">visual-studio-code</title>
   <path id="svg_17" d="m170.97306,21.92213l-14.93171,-6.43508c-1.80991,-0.80439 -3.84605,-0.40219 -5.20347,0.80439l-28.50601,23.32719l-12.4431,-8.44605c-1.13119,-0.80439 -2.71486,-0.80439 -3.84605,0.2011l-4.07229,3.21754c-1.35743,1.00549 -1.35743,2.81535 0,4.02193l10.85943,8.64715l-10.85943,8.64715c-1.35743,1.00549 -1.35743,2.81535 0,4.02193l4.07229,3.21754c1.13119,0.80439 2.71486,1.00549 3.84605,0.2011l12.4431,-8.44605l28.50601,23.12609c1.35743,1.20658 3.39358,1.60877 5.20347,0.80439l14.93171,-6.43508c1.58367,-0.60329 2.48862,-2.01096 2.48862,-3.61974l0,-43.23574c0,-1.40768 -0.90495,-2.81535 -2.48862,-3.61974l0,0l0,-0.00002zm-15.61043,40.0182l-21.71887,-14.68004l21.71887,-14.68004l0,29.36008z" fill="#ffc576" stroke="#ffc576"/>
  </g>
  <g id="svg_1">
   <path id="svg_2" fill="#ffffff" stroke-linecap="round" stroke-linejoin="round" stroke-miterlimit="10" d="m292.51517,38.86716c-2.09352,-1.46489 -6.91974,-1.99332 -10.62679,-1.26823c-0.47959,-3.6242 -2.42788,-6.78027 -5.97473,-9.61929l-2.03526,-1.40459l-1.35219,2.11414c-2.67505,4.19801 -3.40162,12.11099 -0.53764,16.67145c-1.26461,0.70954 -3.75114,1.67626 -7.03625,1.61533l-63.19356,0c-1.26461,7.67156 0.84327,16.64098 6.39667,23.48156c5.39319,6.6292 13.476,9.99686 24.04453,9.99686c22.88187,0 39.81754,-10.94761 47.74055,-30.83585c3.11115,0.06051 9.82721,0.01534 13.27272,-6.82503c0.21805,-0.37757 0.95938,-1.99353 1.23528,-2.58247l-1.93332,-1.34387l-0.00001,-0.00001z" fill-opacity="0" stroke="#ffc576" stroke-width="2"/>
   <rect id="svg_3" fill="none" stroke-linecap="round" stroke-linejoin="round" stroke-miterlimit="10" y="32.15145" x="252.56768" width="9.84539" height="8.6014" stroke="#ffc576" stroke-width="2"/>
   <rect id="svg_4" fill="none" stroke-linecap="round" stroke-linejoin="round" stroke-miterlimit="10" y="32.15145" x="242.48456" width="9.84539" height="8.6014" stroke="#ffc576" stroke-width="2"/>
   <rect id="svg_5" fill="none" stroke-linecap="round" stroke-linejoin="round" stroke-miterlimit="10" y="32.15145" x="232.87691" width="9.84539" height="8.6014" stroke="#ffc576" stroke-width="2"/>
   <rect id="svg_6" fill="none" stroke-linecap="round" stroke-linejoin="round" stroke-miterlimit="10" y="23.43895" x="242.72229" width="9.84539" height="8.6014" stroke="#ffc576" stroke-width="2"/>
   <rect id="svg_7" fill="none" stroke-linecap="round" stroke-linejoin="round" stroke-miterlimit="10" y="14.72644" x="242.72229" width="9.84539" height="8.6014" stroke="#ffc576" stroke-width="2"/>
   <rect id="svg_8" fill="none" stroke-linecap="round" stroke-linejoin="round" stroke-miterlimit="10" y="23.43895" x="232.87691" width="9.84539" height="8.6014" stroke="#ffc576" stroke-width="2"/>
   <rect id="svg_9" fill="none" stroke-linecap="round" stroke-linejoin="round" stroke-miterlimit="10" y="23.43895" x="223.03152" width="9.84539" height="8.6014" stroke="#ffc576" stroke-width="2"/>
   <rect id="svg_10" fill="none" stroke-linecap="round" stroke-linejoin="round" stroke-miterlimit="10" y="32.15145" x="223.03152" width="9.84539" height="8.6014" stroke="#ffc576" stroke-width="2"/>
   <rect id="svg_11" fill="none" stroke-linecap="round" stroke-linejoin="round" stroke-miterlimit="10" y="32.15145" x="213.18613" width="9.84539" height="8.6014" stroke="#ffc576" stroke-width="2"/>
  </g>
 </g>

</svg>