<svg width="300" height="100" xmlns="http://www.w3.org/2000/svg" fill="none">
 <defs>
  <clipPath id="clip0">
   <path id="svg_1" d="m0,0l125.3,0l0,40.03l-125.3,0l0,-40.03z" fill="#fff"/>
  </clipPath>
 </defs>
 <g>
  <title>Layer 1</title>
  <path id="svg_5" fill="#FFC576" d="m152.37825,28.59168c2.29606,0 4.19852,0.71456 5.6855,2.14369c1.53071,1.38303 2.29606,3.25012 2.29606,5.64737c0,1.84404 -0.48108,3.45757 -1.42138,4.8406c-0.94029,1.33693 -2.18673,2.4203 -3.76117,3.22707c-1.3995,0.69152 -4.08918,1.68269 -8.09089,2.99656c2.03366,0.92202 3.52063,2.2359 4.48279,3.96469a11.26165,11.87101 0 0 1 -0.54668,12.56252a14.51988,15.30553 0 0 1 -5.79483,5.14026a20.33657,21.43696 0 0 1 -8.85625,1.89014c-3.17075,0 -6.12284,-0.57626 -8.85625,-1.72879a15.74445,16.59636 0 0 1 -6.45085,-5.00196a11.48032,12.10151 0 0 1 -2.4054,-7.60667c0,-2.53556 0.56855,-4.67925 1.74938,-6.40804a12.46435,13.13878 0 0 1 4.08918,-3.96469c1.53071,-0.92202 2.95208,-1.56743 4.26412,-1.91319a9.73094,10.25747 0 0 1 -4.08918,-3.22707a6.60392,6.96125 0 0 1 -1.42138,-4.19519c0,-1.26778 0.32801,-2.44335 1.02776,-3.52672c0.72162,-1.10642 1.79312,-1.98234 3.17075,-2.65081c1.42138,-0.69152 3.10515,-1.03727 5.02947,-1.03727c2.44913,0 4.32972,0.57626 5.6855,1.72879c0.65602,0.57626 1.15897,1.24473 1.48698,1.95929c0.34987,0.69152 0.54668,1.38303 0.54668,2.02844c0,0.92202 -0.32801,1.65963 -0.94029,2.2359c-0.61228,0.55321 -1.31204,0.80677 -2.12112,0.80677c-0.76536,0 -1.44324,-0.23051 -2.03366,-0.73761a2.62407,2.76606 0 0 1 -0.80909,-2.14369c0,-0.82982 0.26241,-1.54438 0.80909,-2.12064c0.54668,-0.62236 1.24644,-0.96812 2.07739,-1.03727c-0.17494,-0.50711 -0.65602,-0.92202 -1.42138,-1.26778a6.0791,6.40804 0 0 0 -2.73341,-0.57626c-1.90245,0 -3.43316,0.59931 -4.59213,1.84404c-1.15897,1.17557 -1.74938,2.85826 -1.74938,5.00196c0,2.58166 0.94029,4.77145 2.79901,6.56939a20.33657,21.43696 0 0 1 3.38943,-0.34575c0.65602,0 1.18083,0.11526 1.57444,0.34575c0.39361,0.23051 0.61228,0.55321 0.61228,0.99117a0.87469,0.92202 0 0 1 -0.43734,0.80677a1.85872,1.95929 0 0 1 -1.09337,0.27661c-0.59042,0 -1.2027,-0.11526 -1.81498,-0.34575c-0.61228,-0.23051 -1.35577,-0.53016 -2.18673,-0.92202c-4.7452,1.49828 -7.10687,4.6562 -7.10687,9.4507c0,2.58166 0.65602,4.81756 1.92432,6.68465a12.11447,12.76998 0 0 0 5.24815,4.33349c2.2086,0.94507 4.70146,1.42913 7.47861,1.42913c2.58034,0 4.98574,-0.41491 7.17247,-1.26778a12.55182,13.23099 0 0 0 5.24815,-3.68808c1.31204,-1.61354 1.96806,-3.45757 1.96806,-5.57822c0,-1.54438 -0.39361,-3.08877 -1.15897,-4.67925a7.78475,8.20598 0 0 0 -4.37346,-3.68808c-2.84274,0.92202 -4.942,1.65963 -6.27591,2.1898c-1.53071,0.62236 -2.73341,1.33693 -3.56437,2.14369c-0.83096,0.76067 -1.24644,1.72879 -1.24644,2.88131c0,1.38303 0.52481,2.48945 1.57444,3.34232a5.72923,6.03923 0 0 0 5.46682,0.92202c0.72162,-0.23051 1.15897,-0.55321 1.2683,-0.92202c-0.69976,-0.16135 -1.31204,-0.46101 -1.81498,-0.92202c-0.50295,-0.46101 -0.76536,-1.15253 -0.76536,-2.02844c0,-0.92202 0.28427,-1.63659 0.83096,-2.1898c0.56855,-0.53016 1.31204,-0.80677 2.18673,-0.80677s1.55258,0.29966 2.07739,0.87592c0.54668,0.57626 0.80909,1.31388 0.80909,2.2359c0,1.54438 -0.65602,2.76606 -2.01179,3.64198a8.30957,8.75919 0 0 1 -9.24986,-0.34575c-1.35577,-1.15253 -2.01179,-2.85826 -2.01179,-5.07111c0,-1.95929 0.61228,-3.61893 1.85872,-4.95585a14.43241,15.21333 0 0 1 5.6855,-3.45757l3.87051,-1.22168c2.18673,-0.64541 4.00171,-1.22168 5.46682,-1.72879c1.46511,-0.48406 2.79901,-1.03727 4.00171,-1.61354c1.74938,-0.82982 2.95208,-1.70574 3.65183,-2.58166c0.69976,-0.89897 1.04963,-1.86709 1.04963,-2.95046c0,-1.61354 -0.65602,-2.97351 -1.92432,-4.07994a6.47272,6.82295 0 0 0 -4.41719,-1.72879c-0.91843,0 -1.46511,0.16135 -1.64005,0.50711c0.45921,0.23051 0.83096,0.62236 1.09337,1.15253c0.28427,0.50711 0.43734,1.01422 0.43734,1.49828c0,0.80677 -0.32801,1.47523 -0.94029,2.02844c-0.59042,0.53016 -1.31204,0.80677 -2.12112,0.80677c-0.76536,0 -1.44324,-0.25355 -2.03366,-0.76067c-0.59042,-0.48406 -0.87469,-1.19862 -0.87469,-2.12064c0,-1.38303 0.61228,-2.39725 1.81498,-2.99656c1.22457,-0.66846 2.62407,-0.99117 4.19852,-0.99117l-0.00001,0.00001l-0.00001,-0.00003l0.00005,0.00001z" stroke="null"/>
  <path id="svg_6" fill="#FFC576" d="m266.32811,56.18313c2.16486,-2.07454 3.06142,-4.07994 3.06142,-5.92398c0,-1.84404 -0.89655,-3.84944 -3.06142,-5.92398c-2.18673,-2.07454 -5.42309,-4.05689 -9.6216,-5.76263c-8.39704,-3.45757 -20.16163,-5.60127 -33.23827,-5.60127c-13.07663,0 -24.84123,2.16675 -33.23827,5.57822c-4.19852,1.72879 -7.43487,3.68808 -9.6216,5.78567c-2.16486,2.07454 -3.06142,4.07994 -3.06142,5.92398c0,1.84404 0.89655,3.84944 3.06142,5.92398c2.18673,2.07454 5.42309,4.07994 9.6216,5.76263c8.39704,3.45757 20.16163,5.60127 33.23827,5.60127c13.07663,0 24.84123,-2.16675 33.23827,-5.57822c4.19852,-1.70574 7.43487,-3.68808 9.6216,-5.76263l0,-0.02305l0,0.00001zm-42.85987,13.66894c26.56875,0 48.10802,-8.75919 48.10802,-19.59292s-21.53927,-19.59292 -48.10802,-19.59292s-48.10802,8.75919 -48.10802,19.59292s21.53927,19.59292 48.10802,19.59292z" clip-rule="evenodd" fill-rule="evenodd" stroke="null"/>
  <path id="svg_7" fill="#FFC576" d="m250.5618,13.65497c-0.65602,-3.01962 -1.83685,-4.8406 -3.34569,-5.76263c-1.50884,-0.92202 -3.6081,-1.10642 -6.40711,-0.16135c-2.77714,0.92202 -6.03537,2.90436 -9.55601,5.87787c-6.99753,5.97008 -14.65108,15.60519 -21.21126,27.54534c-6.53831,11.96321 -10.6275,23.74201 -12.027,33.12357a30.9422,32.61645 0 0 0 -0.04374,11.6866c0.63415,2.99656 1.81498,4.8406 3.32382,5.76263c1.53071,0.92202 3.6081,1.08337 6.40711,0.16135c2.79901,-0.92202 6.05724,-2.90436 9.55601,-5.90093c6.99753,-5.94703 14.65108,-15.58214 21.21126,-27.54534c6.53831,-11.94016 10.6275,-23.74201 12.027,-33.12357c0.67788,-4.7023 0.67788,-8.64394 0.0656,-11.66355l0.00001,0l0,0.00001zm-10.21202,45.93964c13.29531,-24.24912 16.83781,-48.29079 7.95969,-53.70766c-8.87812,-5.41686 -26.85302,9.86561 -40.14833,34.11473c-13.27344,24.27217 -16.83781,48.31384 -7.95969,53.70766c8.89998,5.41686 26.87489,-9.84256 40.14833,-34.11473z" clip-rule="evenodd" fill-rule="evenodd" stroke="null"/>
  <path id="svg_8" fill="#FFC576" d="m207.70193,7.73099c-2.79901,-0.92202 -4.89827,-0.76067 -6.40711,0.16135s-2.68968,2.74301 -3.32382,5.76263c-0.65602,2.99656 -0.65602,6.96125 0.0656,11.66355c1.37764,9.38155 5.46682,21.20646 12.027,33.12357c6.53831,11.96321 14.19187,21.59832 21.21126,27.54534c3.49876,2.99656 6.75699,4.95585 9.53413,5.90093c2.79901,0.92202 4.89827,0.76067 6.40711,-0.16135c1.53071,-0.92202 2.71154,-2.76606 3.34569,-5.76263c0.61228,-3.01962 0.61228,-6.9843 -0.0656,-11.6866c-1.3995,-9.3585 -5.48868,-21.16036 -12.027,-33.12357c-6.56019,-11.94016 -14.21373,-21.57526 -21.21126,-27.54534c-3.49876,-2.97351 -6.77886,-4.95585 -9.55601,-5.87787l0.00001,-0.00001zm32.64785,32.2707c-13.27344,-24.24912 -31.27021,-39.5316 -40.14833,-34.11473c-8.87812,5.41686 -5.31375,29.45854 7.95969,53.70766c13.29531,24.27217 31.27021,39.5316 40.14833,34.11473c8.89998,-5.39382 5.33562,-29.43548 -7.95969,-53.70766z" clip-rule="evenodd" fill-rule="evenodd" stroke="null"/>
  <path id="svg_9" fill="#FFC576" d="m230.02842,50.25915a5.46682,5.76263 0 1 1 -10.93364,0a5.46682,5.76263 0 0 1 10.93364,0z" stroke="null"/>
  <text transform="matrix(2.14067 0 0 2.15693 4.13255 16.1635)" font-style="normal" font-weight="normal" xml:space="preserve" text-anchor="start" font-family="serif" font-size="46" stroke-width="0" fill="#FFC576" id="svg_12" y="28" x="3" stroke="null">JS</text>
 </g>
</svg>