<svg width="300" height="100" xmlns="http://www.w3.org/2000/svg" fill="none">
 <defs>
  <clipPath id="clip0">
   <path fill="#fff" d="m0,0l123.782,0l0,45l-123.782,0l0,-45z" id="svg_1"/>
  </clipPath>
 </defs>
 <g>
  <title>Layer 1</title>
  <path stroke="null" d="m74.8089,16.38788c-5.62701,0.1772 -10.53651,3.0102 -14.19283,6.9221c-4.04702,4.29547 -6.73767,9.38275 -8.67886,14.57993c-3.46958,-2.59523 -6.14302,-5.95534 -11.71351,-7.41782c-4.30257,-1.12826 -8.82138,-0.66395 -12.97898,2.16232c-1.96577,1.34136 -3.32215,3.36909 -3.96839,5.28018c-1.6709,4.95493 1.7569,9.36929 3.31232,10.95065l3.40323,3.32647c0.7003,0.65273 2.39086,2.35522 1.56278,4.79343c-0.88705,2.65579 -4.39349,4.37174 -7.98593,3.3646c-1.60947,-0.45086 -3.91433,-1.54323 -3.39832,-3.07749c0.21378,-0.62806 0.70768,-1.10359 0.97306,-1.64193c0.24081,-0.47104 0.3563,-0.81648 0.43247,-1.02732c0.65607,-1.95371 -0.24326,-4.49959 -2.5383,-5.14784c-2.14269,-0.60114 -4.33452,-0.12561 -5.18471,2.39335c-0.96568,2.85991 0.53567,8.05261 8.57074,10.30914c9.41111,2.64682 17.37246,-2.03446 18.50278,-8.13336c0.71259,-3.81994 -1.17946,-6.66191 -4.64167,-10.31138l-2.82088,-2.84869c-1.71022,-1.55893 -2.29503,-4.21697 -0.5283,-6.25816c1.49398,-1.72267 3.61947,-2.45616 7.10133,-1.59258c5.08397,1.25612 7.34705,4.47716 11.12624,7.07463c-1.55787,4.67455 -2.58007,9.3648 -3.50152,13.57055l-0.56516,3.14029c-2.70293,12.93352 -4.76698,20.03731 -10.12616,24.11521c-1.08117,0.70208 -2.6243,1.74959 -4.95128,1.82586c-1.22123,0.03365 -1.61684,-0.73348 -1.63159,-1.0677c-0.02703,-0.78059 0.69293,-1.13948 1.17209,-1.4894c0.7175,-0.35665 1.80113,-0.94882 1.72496,-2.84421c-0.07617,-2.23858 -2.10828,-4.18108 -5.04465,-4.09135c-2.20166,0.06729 -5.55329,1.95595 -5.42797,5.41701c0.13023,3.57545 3.77919,6.25143 9.28088,6.0832c2.94128,-0.09197 9.5094,-1.1821 15.98168,-8.20514c7.5338,-8.05261 9.64209,-17.28283 11.22944,-24.0367l1.76919,-8.92068c0.97797,0.10767 2.03211,0.17944 3.17717,0.20636c9.38162,0.17944 14.07243,-4.2551 14.14369,-7.48287c0.04915,-1.95147 -1.40061,-3.87826 -3.43518,-3.83116c-1.44975,0.03813 -3.27546,0.91966 -3.71284,2.75449c-0.43001,1.79894 2.98551,3.42292 0.31452,5.00428c-1.89205,1.12153 -5.29283,1.90661 -10.07701,1.26958l0.86985,-4.39192c1.7741,-8.32626 3.96593,-18.56586 12.27621,-18.81484c0.60693,-0.02692 2.82088,0.02243 2.87493,1.36154c0.01229,0.44413 -0.10812,0.56077 -0.68065,1.58361c-0.58482,0.79629 -0.80596,1.48042 -0.77648,2.25653c0.07863,2.12418 1.85028,3.52162 4.4156,3.44086c3.42781,-0.10318 4.41069,-3.14927 4.35417,-4.71493c-0.14252,-3.68312 -4.39103,-6.00693 -10.01067,-5.8387l0.00246,0l-0.00001,0l0.00006,0z" fill="#FFC576" id="svg_3"/>
  <circle stroke="#FFC576" transform="matrix(0.26187 -0.000344273 0.000355319 0.253729 4.17752 1.59947)" cx="183.31393" cy="190.01818" r="184" id="svg_4" stroke-width="9"/>
 </g>
</svg>